<svg width="355" height="118" viewBox="0 0 355 118" fill="none" xmlns="http://www.w3.org/2000/svg">
<path d="M16.512 95.4C14.976 94.9733 13.7387 94.5893 12.8 94.248C11.8613 93.992 11.392 93.864 11.392 93.864C11.5627 93.4373 11.4773 93.0533 11.136 92.712C10.88 92.3707 10.2827 92.1573 9.344 92.072C8.064 91.304 6.86933 90.3227 5.76 89.128C4.736 88.0187 3.88267 86.9093 3.2 85.8C2.51733 84.6907 2.00533 83.752 1.664 82.984C1.06667 81.704 0.768002 80.936 0.768002 80.68C0.853334 80.3387 1.36533 79.9547 2.304 79.528C3.24267 78.8453 3.92533 78.632 4.352 78.888C4.864 79.144 5.46133 79.9973 6.144 81.448C7.25333 83.4107 9.13067 84.904 11.776 85.928C14.5067 86.952 17.536 87.4213 20.864 87.336C24.2773 87.1653 27.52 86.3973 30.592 85.032C33.7493 83.752 35.712 82.4293 36.48 81.064C37.3333 79.6133 37.0347 77.7787 35.584 75.56C35.328 74.8773 35.0293 74.3227 34.688 73.896C34.3467 73.4693 33.792 72.9147 33.024 72.232C32.3413 71.5493 31.1893 70.44 29.568 68.904C28.288 68.3067 27.0933 67.752 25.984 67.24C24.96 66.728 23.8507 66.1733 22.656 65.576C21.2907 64.8933 19.6267 63.912 17.664 62.632C15.7867 61.2667 13.9947 59.7733 12.288 58.152C10.5813 56.5307 9.344 55.0373 8.576 53.672C7.21067 52.392 6.18667 50.6427 5.504 48.424C4.82133 46.12 4.56533 43.688 4.736 41.128C4.90667 38.568 5.54667 36.264 6.656 34.216C7.168 33.0213 8.02133 31.5707 9.216 29.864C10.496 28.072 11.904 26.28 13.44 24.488C14.976 22.696 16.4693 21.0747 17.92 19.624C19.3707 18.1733 20.5653 17.1493 21.504 16.552C22.1867 15.8693 22.912 15.1867 23.68 14.504C24.448 13.736 24.832 13.352 24.832 13.352C24.9173 12.9253 25.0453 12.712 25.216 12.712C25.472 12.712 25.6 12.712 25.6 12.712C26.0267 12.456 26.9653 12.0293 28.416 11.432C29.8667 10.8347 31.4453 9.72533 33.152 8.104C38.8693 5.37333 43.52 3.368 47.104 2.088C50.688 0.807999 53.632 0.167999 55.936 0.167999C58.0693 0.253332 59.9893 0.76533 61.696 1.70399C63.488 2.55733 64.9387 3.70933 66.048 5.16C67.2427 6.61066 67.968 8.36 68.224 10.408C68.8213 12.456 68.6507 14.8453 67.712 17.576C66.7733 20.2213 65.3653 22.7387 63.488 25.128C61.696 27.432 59.7333 29.1813 57.6 30.376C55.2107 31.4 53.5893 31.8693 52.736 31.784C51.968 31.6133 51.6267 30.7173 51.712 29.096C51.712 28.4133 51.9253 27.6027 52.352 26.664C52.864 25.7253 54.1867 24.0613 56.32 21.672C59.0507 17.6613 60.7147 14.4613 61.312 12.072C61.9093 9.68267 61.3547 8.36 59.648 8.104C59.136 7.93333 58.1973 7.93333 56.832 8.104C55.552 8.27466 54.1013 8.53066 52.48 8.87199C50.944 9.128 49.6213 9.42666 48.512 9.768C47.4027 10.024 46.848 10.2373 46.848 10.408C46.848 10.408 46.848 10.536 46.848 10.792C46.848 11.048 46.6773 11.1333 46.336 11.048C46.1653 11.048 45.44 11.3893 44.16 12.072C42.88 12.7547 41.344 13.6507 39.552 14.76C37.76 15.8693 35.968 16.9787 34.176 18.088C32.384 19.1973 30.848 20.1787 29.568 21.032C28.3733 21.8 27.7333 22.2693 27.648 22.44C27.4773 23.3787 26.496 24.232 24.704 25C22.9973 26.024 21.4187 27.5173 19.968 29.48C18.6027 31.4427 17.0667 33.8747 15.36 36.776C13.9093 38.7387 12.8853 40.872 12.288 43.176C11.6907 45.3947 11.6907 47.1867 12.288 48.552C12.7147 49.9173 14.0373 51.6667 16.256 53.8C18.4747 55.9333 21.248 57.9813 24.576 59.944C27.4773 61.5653 30.08 63.1867 32.384 64.808C34.688 66.344 36.5653 67.8373 38.016 69.288C39.552 70.7387 40.576 72.0187 41.088 73.128C42.112 74.5787 42.8373 76.072 43.264 77.608C43.776 79.0587 44.032 80.4667 44.032 81.832C44.1173 83.1973 43.9893 84.4347 43.648 85.544C43.0507 86.9093 41.984 88.3173 40.448 89.768C38.9973 91.2187 37.76 91.9013 36.736 91.816C35.7973 92.072 35.072 92.3707 34.56 92.712C34.1333 93.0533 33.6213 93.352 33.024 93.608C32.4267 93.9493 31.1467 94.2907 29.184 94.632C27.3067 94.9733 25.216 95.1867 22.912 95.272C20.608 95.4427 18.4747 95.4853 16.512 95.4ZM54.058 117.672C53.7167 117.672 53.29 117.672 52.778 117.672C52.266 117.757 51.7967 117.416 51.37 116.648C51.0287 116.221 50.8153 115.581 50.73 114.728C50.73 113.875 50.9433 112.339 51.37 110.12C51.7967 108.669 52.138 107.219 52.394 105.768C52.65 104.403 52.778 103.379 52.778 102.696C52.778 102.355 52.8633 101.672 53.034 100.648C53.29 99.7093 53.418 99.0267 53.418 98.6C53.8447 97.9173 54.186 96.9787 54.442 95.784C54.698 94.5893 54.826 93.5227 54.826 92.584C54.826 91.56 55.338 90.6213 56.362 89.768C56.362 89.0853 56.49 88.232 56.746 87.208C57.0873 86.184 57.258 85.5013 57.258 85.16C57.514 83.9653 58.0687 81.8747 58.922 78.888C59.8607 75.816 60.97 72.36 62.25 68.52C63.6153 64.68 64.938 60.9253 66.218 57.256C67.498 53.5867 68.65 50.472 69.674 47.912C70.698 45.5227 71.3807 43.4747 71.722 41.768C72.1487 39.976 72.362 38.6533 72.362 37.8C72.362 37.4587 72.4473 37.2027 72.618 37.032C72.7887 36.776 73.1727 36.3067 73.77 35.624C74.6233 34.7707 75.3487 34.5147 75.946 34.856C76.6287 35.1973 77.4393 35.7093 78.378 36.392C79.0607 37.5013 79.53 38.44 79.786 39.208C80.1273 39.976 80.1273 41.2987 79.786 43.176C79.786 44.456 79.5727 45.5653 79.146 46.504C78.7193 47.4427 78.3353 48.168 77.994 48.68C77.6527 49.1067 77.5673 49.2773 77.738 49.192C81.2367 47.5707 84.3087 46.7173 86.954 46.632C89.6847 46.4613 91.946 46.9307 93.738 48.04C95.6153 49.064 97.0233 50.5147 97.962 52.392C98.9007 54.2693 99.37 56.4453 99.37 58.92C99.37 59.944 99.1567 61.1813 98.73 62.632C98.3033 63.9973 97.7487 65.2773 97.066 66.472C96.4687 67.5813 95.914 68.392 95.402 68.904C95.0607 68.904 94.7193 69.2027 94.378 69.8C94.0367 70.312 93.6953 70.9093 93.354 71.592C92.6713 72.4453 91.562 73.4267 90.026 74.536C88.5753 75.56 87.1247 76.4133 85.674 77.096C84.2233 77.6933 83.1567 77.864 82.474 77.608C82.474 77.608 82.346 77.6507 82.09 77.736C81.9193 77.736 81.834 77.9493 81.834 78.376C81.834 78.5467 81.1513 78.9307 79.786 79.528C78.4207 80.04 76.842 80.552 75.05 81.064C73.258 81.4907 71.6793 81.704 70.314 81.704C68.522 81.704 67.242 81.3627 66.474 80.68C66.3033 80.8507 66.09 81.1067 65.834 81.448C65.6633 81.7893 65.578 82.088 65.578 82.344C65.578 82.856 65.3647 83.8373 64.938 85.288C64.5967 86.6533 64.17 87.976 63.658 89.256C63.146 90.536 62.6767 91.176 62.25 91.176C62.25 91.176 62.1647 91.304 61.994 91.56C61.8233 91.816 61.9087 92.1573 62.25 92.584C62.25 92.584 62.2073 93.0533 62.122 93.992C62.122 95.016 61.9087 95.8693 61.482 96.552C61.482 97.2347 61.354 98.2587 61.098 99.624C60.842 100.989 60.5433 102.013 60.202 102.696C60.202 103.72 60.0313 104.701 59.69 105.64C59.434 106.664 59.1353 107.176 58.794 107.176C58.4527 107.261 58.2393 107.773 58.154 108.712C58.0687 109.736 58.026 110.461 58.026 110.888C57.9407 113.021 57.514 114.685 56.746 115.88C55.978 117.075 55.082 117.672 54.058 117.672ZM69.546 74.92C70.2287 74.92 71.6367 74.6213 73.77 74.024C75.9033 73.4267 78.0793 72.7013 80.298 71.848C82.602 70.9093 84.3087 69.9707 85.418 69.032C87.6367 67.0693 89.3433 64.8507 90.538 62.376C91.818 59.816 91.7327 57.384 90.282 55.08C89.5993 53.8853 88.362 53.416 86.57 53.672C84.778 53.8427 82.8153 54.5253 80.682 55.72C78.5487 56.9147 76.5433 58.408 74.666 60.2C73.642 61.3093 72.7033 62.6747 71.85 64.296C70.9967 65.9173 70.2713 67.5387 69.674 69.16C69.162 70.7813 68.8633 72.1467 68.778 73.256C68.6927 74.3653 68.9487 74.92 69.546 74.92ZM108.833 84.904C108.15 84.2213 107.638 83.368 107.297 82.344C107.041 81.32 106.956 80.296 107.041 79.272C107.126 78.248 107.34 77.3947 107.681 76.712C107.681 76.0293 107.766 75.5173 107.937 75.176C108.193 74.7493 108.278 74.3653 108.193 74.024C108.108 73.6827 108.193 73.0853 108.449 72.232C108.705 71.3787 108.961 70.568 109.217 69.8C109.814 68.4347 110.454 66.8133 111.137 64.936C111.82 62.9733 112.46 61.0533 113.057 59.176C113.654 57.2987 114.166 55.6773 114.593 54.312C115.02 52.9467 115.276 52.0933 115.361 51.752C115.361 50.728 116.044 50.1733 117.409 50.088C118.433 49.7467 119.201 49.7467 119.713 50.088C120.225 50.344 120.908 51.1547 121.761 52.52C122.444 53.2027 122.7 54.2267 122.529 55.592C122.358 56.9573 121.804 58.664 120.865 60.712C120.524 61.3947 120.097 62.376 119.585 63.656C119.158 64.936 118.86 66.088 118.689 67.112C118.348 67.7947 117.921 68.776 117.409 70.056C116.982 71.2507 116.598 72.4027 116.257 73.512C116.086 73.9387 115.916 74.5787 115.745 75.432C115.574 76.2 115.361 77.0533 115.105 77.992C114.849 78.8453 114.508 79.6133 114.081 80.296C113.313 83.7947 112.588 85.8427 111.905 86.44C111.308 87.0373 110.284 86.5253 108.833 84.904ZM121.249 32.936C120.822 32.5093 120.438 31.912 120.097 31.144C119.756 30.2907 119.542 29.5227 119.457 28.84C119.372 28.072 119.457 27.688 119.713 27.688C120.396 27.6027 121.206 26.8773 122.145 25.512C123.084 24.1467 123.468 22.952 123.297 21.928C123.297 21.5867 123.425 21.288 123.681 21.032C123.937 20.6907 124.236 20.4773 124.577 20.392C125.601 19.7093 126.582 19.624 127.521 20.136C128.545 20.5627 129.484 21.4587 130.337 22.824C131.105 24.4453 131.318 25.8107 130.977 26.92C130.636 27.944 129.697 29.3947 128.161 31.272C126.881 32.9787 125.686 33.9173 124.577 34.088C123.553 34.2587 122.444 33.8747 121.249 32.936ZM164.068 87.72C163.727 87.72 163.215 87.6773 162.532 87.592C161.935 87.4213 161.423 87.0373 160.996 86.44C159.716 84.904 158.905 83.624 158.564 82.6C158.223 81.576 158.18 80.0827 158.436 78.12C158.607 76.84 158.692 75.7307 158.692 74.792C158.777 73.768 158.863 72.9147 158.948 72.232C158.607 71.8907 157.967 72.1467 157.028 73C156.175 73.768 154.98 74.7493 153.444 75.944C150.543 79.272 147.94 81.832 145.636 83.624C143.417 85.3307 141.412 86.4827 139.62 87.08C137.828 87.592 136.121 87.7627 134.5 87.592C133.049 87.4213 131.897 86.824 131.044 85.8C130.191 84.6907 129.636 83.2827 129.38 81.576C129.209 79.8693 129.209 78.0347 129.38 76.072C129.721 73.256 130.319 70.568 131.172 68.008C132.111 65.448 133.604 62.5893 135.652 59.432C136.591 57.7253 137.828 56.0613 139.364 54.44C140.985 52.7333 142.735 51.24 144.612 49.96C146.575 48.5947 148.452 47.6133 150.244 47.016C152.207 46.248 154.212 45.8213 156.26 45.736C158.308 45.5653 160.143 45.736 161.764 46.248C162.788 46.76 163.599 47.016 164.196 47.016C164.879 47.016 165.391 46.5893 165.732 45.736C166.159 45.0533 166.585 44.0293 167.012 42.664C167.439 41.2133 167.951 39.976 168.548 38.952L171.364 30.632C172.303 28.328 173.327 25.896 174.436 23.336C175.545 20.776 176.868 17.6613 178.404 13.992C179.855 11.2613 181.049 9.68266 181.988 9.256C182.927 8.744 183.993 9.08533 185.188 10.28C186.127 11.3893 186.468 12.6693 186.212 14.12C185.956 15.4853 185.188 17.704 183.908 20.776C183.311 21.7147 182.799 22.6107 182.372 23.464C181.945 24.232 181.348 25.4693 180.58 27.176C179.471 29.8213 178.447 32.2107 177.508 34.344C176.569 36.392 175.588 38.7387 174.564 41.384C174.223 42.7493 173.753 44.328 173.156 46.12C172.644 47.912 172.217 49.5333 171.876 50.984C171.62 52.3493 171.321 53.6293 170.98 54.824C170.724 55.9333 170.425 56.488 170.084 56.488C169.401 57.256 168.761 58.6213 168.164 60.584C167.567 62.4613 167.055 64.424 166.628 66.472C166.287 68.52 165.988 70.2267 165.732 71.592C165.561 72.616 165.433 73.9387 165.348 75.56C165.263 77.1813 165.22 78.76 165.22 80.296C165.22 81.7467 165.22 82.7707 165.22 83.368C165.22 85.2453 165.177 86.44 165.092 86.952C165.007 87.464 164.665 87.72 164.068 87.72ZM136.804 79.656C138.596 79.656 140.473 78.888 142.436 77.352C144.484 75.816 146.532 74.1093 148.58 72.232C149.86 71.0373 151.225 69.4587 152.676 67.496C154.212 65.5333 155.663 63.5707 157.028 61.608C158.479 59.6453 159.631 57.9387 160.484 56.488C161.337 54.952 161.764 54.0133 161.764 53.672C161.764 53.2453 161.38 52.9467 160.612 52.776C159.844 52.6053 158.948 52.52 157.924 52.52C156.985 52.4347 156.217 52.4773 155.62 52.648C153.743 53.0747 151.865 53.928 149.988 55.208C148.196 56.488 146.233 58.408 144.1 60.968C141.881 63.6987 140.047 66.5147 138.596 69.416C137.231 72.3173 136.377 74.7493 136.036 76.712C135.695 78.6747 135.951 79.656 136.804 79.656ZM193.838 89.384C190.083 89.384 187.011 87.976 184.622 85.16C182.233 82.2587 181.081 78.6747 181.166 74.408C181.337 71.336 181.934 68.0507 182.958 64.552C184.067 60.968 185.518 57.5547 187.31 54.312C189.102 50.984 191.065 48.0827 193.198 45.608C195.331 43.1333 197.55 41.384 199.854 40.36C200.707 39.9333 201.603 39.592 202.542 39.336C203.566 39.08 204.59 38.952 205.614 38.952C206.553 38.952 207.534 39.1227 208.558 39.464C209.582 39.72 210.435 40.0187 211.118 40.36C212.569 40.9573 213.678 41.6827 214.446 42.536C215.214 43.3893 215.897 44.712 216.494 46.504C216.75 48.1253 216.878 49.2773 216.878 49.96C216.878 50.6427 216.665 51.6667 216.238 53.032C215.214 56.104 213.891 58.7493 212.27 60.968C210.649 63.1867 208.473 65.064 205.742 66.6C205.059 67.0267 204.249 67.368 203.31 67.624C202.457 67.7947 201.561 67.88 200.622 67.88C198.915 67.88 197.251 67.5813 195.63 66.984C194.094 66.3013 192.857 65.32 191.918 64.04L191.022 63.016L190.638 64.04C189.785 66.344 189.102 68.4773 188.59 70.44C188.163 72.4027 187.95 74.1947 187.95 75.816C187.95 76.84 188.035 77.8213 188.206 78.76C188.462 79.6987 188.803 80.5093 189.23 81.192C189.571 81.704 190.126 82.088 190.894 82.344C191.747 82.5147 192.643 82.6 193.582 82.6C194.179 82.6 194.777 82.6 195.374 82.6C196.057 82.5147 196.697 82.344 197.294 82.088C198.745 81.576 199.897 81.0213 200.75 80.424C201.689 79.8267 202.627 79.1867 203.566 78.504L204.078 78.248H203.95C204.974 77.736 205.87 77.224 206.638 76.712C207.491 76.2 207.918 75.944 207.918 75.944C208.259 75.944 208.601 75.7307 208.942 75.304C209.625 74.9627 210.478 75.0907 211.502 75.688C212.611 76.2853 213.166 77.0533 213.166 77.992C213.081 78.4187 212.697 79.1013 212.014 80.04C211.331 80.8933 210.563 81.704 209.71 82.472C208.942 83.24 208.302 83.6667 207.79 83.752C207.705 83.8373 207.406 84.008 206.894 84.264C206.382 84.4347 206.041 84.6053 205.87 84.776H205.998C205.23 85.8 204.462 86.312 203.694 86.312H202.67C202.329 86.9093 201.219 87.592 199.342 88.36C197.465 89.0427 195.63 89.384 193.838 89.384ZM199.598 61.224C201.134 61.224 202.457 60.7973 203.566 59.944C204.761 59.0053 205.785 57.9813 206.638 56.872C208.345 54.568 209.326 52.3493 209.582 50.216C209.923 47.9973 209.667 46.4613 208.814 45.608C208.302 45.352 207.833 45.224 207.406 45.224C207.065 45.1387 206.339 45.2667 205.23 45.608C204.462 45.7787 203.395 46.4187 202.03 47.528C200.665 48.6373 199.299 49.8747 197.934 51.24C196.654 52.6053 195.673 53.7573 194.99 54.696L193.326 57.384C194.009 57.128 194.649 57 195.246 57C195.929 56.9147 196.313 56.9573 196.398 57.128C196.398 57.896 196.526 58.6213 196.782 59.304C197.123 59.9013 197.507 60.3707 197.934 60.712C198.446 61.0533 199.001 61.224 199.598 61.224ZM251.719 88.616C250.78 88.9573 250.098 89.0853 249.671 89C249.33 88.8293 248.434 88.1893 246.983 87.08C246.386 86.056 246.002 85.16 245.831 84.392C245.746 83.5387 245.703 82.0453 245.703 79.912C245.874 78.632 246.215 76.7973 246.727 74.408C247.324 72.0187 248.007 69.5013 248.775 66.856C249.543 64.2107 250.226 61.8213 250.823 59.688C251.506 57.5547 252.018 56.104 252.359 55.336C252.956 53.288 253.084 52.0507 252.743 51.624C252.402 51.112 251.378 50.7707 249.671 50.6C246.258 50.1733 243.186 51.2827 240.455 53.928C237.724 56.5733 234.994 60.0293 232.263 64.296C230.215 67.4533 228.978 70.184 228.551 72.488C228.21 74.7067 228.167 76.2427 228.423 77.096C228.679 77.7787 229.276 78.1627 230.215 78.248C231.154 78.248 232.178 78.0347 233.287 77.608C234.482 77.1813 235.506 76.7547 236.359 76.328C236.956 75.9867 237.682 75.6453 238.535 75.304C239.474 74.8773 240.37 74.4933 241.223 74.152C241.735 74.152 242.076 74.3227 242.247 74.664C242.503 74.92 242.631 75.4747 242.631 76.328C242.631 76.6693 242.759 76.968 243.015 77.224C243.271 77.48 243.57 77.6933 243.911 77.864C244.252 78.2053 243.74 78.9733 242.375 80.168C241.095 81.3627 239.09 82.728 236.359 84.264C233.799 84.8613 231.708 85.16 230.087 85.16C228.551 85.16 227.058 84.6053 225.607 83.496C223.218 82.0453 221.852 79.6987 221.511 76.456C221.255 73.128 221.938 69.0747 223.559 64.296C225.18 60.456 226.972 57.3413 228.935 54.952C230.898 52.4773 232.988 50.088 235.207 47.784C235.548 47.4427 236.316 46.9307 237.511 46.248C238.791 45.48 240.37 44.7973 242.247 44.2C244.38 43.5173 246.386 43.0907 248.263 42.92C250.14 42.7493 251.762 43.1333 253.127 44.072C254.663 44.4133 255.644 44.3707 256.071 43.944C256.498 43.432 257.223 41.896 258.247 39.336C259.954 35.0693 261.618 30.76 263.239 26.408C264.86 21.9707 266.61 17.4907 268.487 12.968C269.34 11.3467 269.852 10.1093 270.023 9.256C270.279 8.31733 270.578 7.67733 270.919 7.336H273.351C273.692 7.336 274.29 7.63466 275.143 8.23199C275.996 8.82933 276.594 9.64 276.935 10.664C276.935 11.432 276.594 13.1387 275.911 15.784C275.228 18.344 274.119 21.416 272.583 25C271.218 28.1573 269.852 31.3573 268.487 34.6C267.207 37.7573 265.97 41.128 264.775 44.712C263.836 47.3573 262.983 49.4907 262.215 51.112C261.447 52.7333 260.935 54.1413 260.679 55.336C260.167 57.5547 259.527 59.56 258.759 61.352C258.076 63.0587 257.607 64.2533 257.351 64.936C256.242 68.1787 255.346 70.824 254.663 72.872C253.98 74.8347 253.468 76.4987 253.127 77.864C252.786 79.144 252.572 80.4667 252.487 81.832C252.487 83.112 252.615 84.648 252.871 86.44C252.871 86.7813 252.828 87.1227 252.743 87.464C252.658 87.8053 252.316 88.1893 251.719 88.616ZM282.385 85.928C279.057 84.5627 276.881 82.6853 275.857 80.296C274.918 77.8213 274.748 74.024 275.345 68.904C275.516 66.2587 275.601 64.5093 275.601 63.656C275.601 62.8027 275.132 61.9493 274.193 61.096C273.937 60.7547 273.468 60.2853 272.785 59.688C272.188 59.0907 271.932 58.5787 272.017 58.152C271.932 57.5547 271.974 56.9147 272.145 56.232C272.316 55.464 272.572 55.08 272.913 55.08C273.254 55.08 273.596 54.9947 273.937 54.824C274.364 54.6533 274.748 54.6533 275.089 54.824C275.43 54.824 275.814 54.8667 276.241 54.952C276.668 55.0373 276.881 55.2507 276.881 55.592C277.222 56.1893 277.777 56.2747 278.545 55.848C279.313 55.336 280.124 54.2267 280.977 52.52C281.83 51.1547 282.94 49.7893 284.305 48.424C285.756 47.0587 287.164 45.8213 288.529 44.712C289.98 43.5173 291.174 42.664 292.113 42.152C292.54 41.9813 293.18 41.768 294.033 41.512C294.886 41.256 295.782 41.0427 296.721 40.872C297.745 40.7013 298.598 40.6587 299.281 40.744C300.817 40.8293 302.097 41.256 303.121 42.024C304.23 42.792 305.254 43.688 306.193 44.712C307.302 45.48 307.985 46.504 308.241 47.784C308.582 49.064 308.668 50.4293 308.497 51.88C308.326 53.3307 307.942 54.6533 307.345 55.848C307.089 56.7013 306.364 57.7253 305.169 58.92C303.974 60.1147 302.609 61.2667 301.073 62.376C299.537 63.4853 298.129 64.296 296.849 64.808C295.74 65.064 294.289 65.2773 292.497 65.448C290.79 65.6187 289.169 65.704 287.633 65.704C286.182 65.6187 285.201 65.448 284.689 65.192C284.092 64.8507 283.622 65.32 283.281 66.6C282.94 67.88 282.684 69.7147 282.513 72.104C282.342 73.9813 282.342 75.3467 282.513 76.2C282.684 77.0533 282.854 77.6507 283.025 77.992C283.622 78.5893 284.433 79.3573 285.457 80.296C286.566 81.1493 288.102 81.2773 290.065 80.68C291.686 80.2533 293.265 79.144 294.801 77.352C296.422 75.56 297.916 74.1093 299.281 73C299.622 72.4027 300.177 72.0613 300.945 71.976C301.798 71.8053 302.694 71.848 303.633 72.104C304.572 72.7013 304.956 73.4267 304.785 74.28C304.7 75.048 304.273 76.2427 303.505 77.864C303.249 78.4613 302.652 79.2293 301.713 80.168C300.86 81.0213 299.878 81.9173 298.769 82.856C297.745 83.7093 296.806 84.392 295.953 84.904C293.393 86.2693 291.004 86.9947 288.785 87.08C286.566 87.08 284.433 86.696 282.385 85.928ZM289.937 59.944C291.814 59.5173 293.308 59.2187 294.417 59.048C295.526 58.8773 296.593 58.408 297.617 57.64C298.641 56.7867 299.921 55.208 301.457 52.904C301.798 51.9653 301.884 51.0267 301.713 50.088C301.628 49.1493 301.414 48.5093 301.073 48.168C300.305 47.3147 299.366 47.0587 298.257 47.4C297.233 47.656 296.252 48.1253 295.313 48.808C294.716 49.064 293.82 49.704 292.625 50.728C291.516 51.6667 290.406 52.776 289.297 54.056C288.188 55.2507 287.292 56.36 286.609 57.384C285.926 58.408 285.756 59.0053 286.097 59.176C285.926 59.5173 286.396 59.7307 287.505 59.816C288.7 59.9013 289.51 59.944 289.937 59.944ZM352.298 88.616C351.957 88.616 351.487 88.5733 350.89 88.488C350.378 88.4027 349.951 88.1893 349.61 87.848C349.269 87.848 348.671 87.72 347.818 87.464C346.965 87.208 346.197 86.9093 345.514 86.568C344.661 86.2267 343.509 85.544 342.058 84.52C340.607 83.4107 339.157 82.216 337.706 80.936C336.255 79.656 335.018 78.4613 333.994 77.352C333.055 76.2427 332.586 75.432 332.586 74.92C332.586 74.4933 332.373 74.28 331.946 74.28C331.946 74.28 331.818 74.152 331.562 73.896C331.306 73.5547 331.178 73.2133 331.178 72.872C331.178 72.0187 330.751 71.592 329.898 71.592C329.898 71.592 329.173 72.1893 327.722 73.384C326.271 74.5787 324.693 76.0293 322.986 77.736C320.597 80.1253 318.805 81.8747 317.61 82.984C316.501 84.008 315.605 84.52 314.922 84.52C314.239 84.52 313.471 84.264 312.618 83.752C311.765 83.24 310.997 82.6427 310.314 81.96C309.717 81.192 309.418 80.4667 309.418 79.784C309.418 79.784 310.271 78.8027 311.978 76.84C313.77 74.8773 315.861 72.872 318.25 70.824L326.442 62.76L325.034 57.896C324.437 56.5307 323.797 55.1227 323.114 53.672C322.517 52.136 322.047 50.856 321.706 49.832C320.682 48.3813 320.127 47.4853 320.042 47.144C320.042 46.7173 320.383 45.992 321.066 44.968C321.749 44.2853 322.303 43.8587 322.73 43.688C323.242 43.432 324.01 43.6453 325.034 44.328C325.546 44.328 326.229 45.0533 327.082 46.504C327.935 47.8693 328.703 49.4053 329.386 51.112C330.154 52.7333 330.538 53.8853 330.538 54.568C330.538 55.9333 331.05 56.488 332.074 56.232C333.098 55.976 334.634 55.1653 336.682 53.8C337.706 52.8613 338.517 52.0933 339.114 51.496C339.711 50.8133 340.01 50.472 340.01 50.472C340.266 50.216 341.034 49.6613 342.314 48.808C343.594 47.8693 344.917 46.9307 346.282 45.992C347.647 45.0533 348.543 44.4987 348.97 44.328C349.653 43.816 350.421 43.816 351.274 44.328C352.127 44.7547 352.853 45.4373 353.45 46.376C354.047 47.2293 354.346 48.1253 354.346 49.064C354.346 50.088 354.09 50.8987 353.578 51.496C353.066 52.0933 351.957 52.8613 350.25 53.8C348.714 54.9093 347.349 55.8907 346.154 56.744C345.045 57.5973 343.85 58.536 342.57 59.56C341.375 60.4987 339.839 61.7787 337.962 63.4L334.634 66.088L336.682 69.544C337.023 70.1413 337.493 70.9947 338.09 72.104C338.773 73.2133 339.413 73.9387 340.01 74.28C340.522 74.9627 341.503 75.9013 342.954 77.096C344.405 78.2907 345.813 79.4 347.178 80.424C348.629 81.3627 349.439 81.832 349.61 81.832C349.951 81.832 350.335 81.96 350.762 82.216C351.189 82.472 351.701 82.7707 352.298 83.112C352.981 83.7947 353.407 84.5627 353.578 85.416C353.834 86.2693 353.834 87.0373 353.578 87.72C353.407 88.3173 352.981 88.616 352.298 88.616Z" fill="white"/>
</svg>
